<?xml version="1.0" ?>
<!-- Find more at icons.mysitemyway.com -->
<svg height="100" width="100" viewBox="0 0 100 100" xmlns:xlink="http://www.w3.org/1999/xlink" xmlns="http://www.w3.org/2000/svg" version="1.1">
<defs>
<linearGradient id="green-gradient" x1="0%" y1="0%" x2="0%" y2="100%">
<stop offset="0%" stop-color="#abce00" />
<stop offset="100%" stop-color="#539c00" />
</linearGradient>
</defs>
<circle fill="url(#green-gradient)" cx="50" cy="50" r="49"/>
<path fill="#fff" transform="translate(25,25) scale(0.5)" d="M94.501,71.008H99v13.589h-4.499V71.008z M87.466,71.008h4.499v13.589h-4.499V71.008z M1,71.221h83.953V84.65H1V71.221z M94.02,47.116c-3.493-3.984-8.421-6.178-13.878-6.178h-3.285c0.92-2.117,1.421-4.342,1.421-6.443c0-4.024-1.559-7.741-4.389-10.466 c-2.82-2.716-6.736-4.234-11.05-4.298v4.499c6.355,0.125,10.939,4.402,10.939,10.265c0,2.369-0.973,5.124-2.602,7.372 c-0.496,0.685-0.567,1.59-0.183,2.343c0.384,0.754,1.158,1.228,2.004,1.228h7.144c5.308,0,8.637,2.525,10.494,4.644 c2.439,2.782,3.838,6.585,3.838,10.432v8.274h4.499v-8.274C98.974,55.59,97.168,50.707,94.02,47.116z M79.92,51.648H67.836 c-2.71,0-4.158-1.539-4.896-2.828c-1.275-2.23-1.292-5.274-0.039-7.4c0.421-0.716,0.415-1.606-0.02-2.315 c-0.433-0.709-1.218-1.12-2.052-1.073c-3.404,0.2-6.287-0.715-8.334-2.647c-1.77-1.669-2.785-3.99-2.785-6.365 c0-3.121,1.818-8.974,8.629-9.166V15.35c-5.212,0.105-8.313,2.586-10.005,4.676c-1.985,2.451-3.123,5.73-3.123,8.994 c0,3.609,1.53,7.123,4.198,9.638c1.65,1.556,4.337,3.304,8.344,3.777c-0.618,2.875-0.191,6.042,1.281,8.617 c1.851,3.238,5.06,5.095,8.802,5.095H79.92c6.237,0,7.546,3.523,7.546,6.479v6.161h4.499v-6.161 C91.967,55.855,87.351,51.648,79.92,51.648z"/>
</svg>