<?xml version="1.0" ?>
<!-- Find more at icons.mysitemyway.com -->
<svg height="100" width="100" viewBox="0 0 100 100" xmlns:xlink="http://www.w3.org/1999/xlink" xmlns="http://www.w3.org/2000/svg" version="1.1">
<defs>
<linearGradient id="green-gradient" x1="0%" y1="0%" x2="0%" y2="100%">
<stop offset="0%" stop-color="#abce00" />
<stop offset="100%" stop-color="#539c00" />
</linearGradient>
</defs>
<rect fill="url(#green-gradient)" x="1" y="1" width="98" height="98" rx="22" ry="22"/>
<path fill="#fff" transform="translate(18,18) scale(0.64)" d="M41.099,71.862c-4.044-2.836-10.032-7.315-11.528-14.774 c-0.302-2.539-0.902-5.819-0.749-9.549c0.149-3.883,0.6-7.76,1.497-10.596c-6.141,4.926-8.986,11.638-8.986,17.309 C21.333,59.923,25.676,71.71,41.099,71.862z M46.789,72.308c0.897-4.328,3.891-9.549,7.187-13.579 c1.497-1.936,5.537-6.417,6.885-8.802c1.65-2.836,3.593-5.671,3.593-14.622c0-12.087-8.084-29.247-12.574-34.171 c0,6.564-1.799,10.294-4.941,14.621C44.693,18.59,33.01,33.961,33.01,45.001C33.01,59.923,40.197,67.382,46.789,72.308z M73.439,72.308L65.802,74.1c-3.291,0.746-8.535,1.343-13.922,4.179c3.891,1.491,10.329,2.983,14.22,3.428l10.78-3.281 C77.93,75.444,76.284,73.355,73.439,72.308z M68.35,40.976c-0.302,4.919-6.141,13.574-10.334,18.351 c-1.645,1.793-4.941,6.866-4.941,8.955c0,1.338-0.447,2.238,0,3.581c4.792-2.539,9.883-2.539,13.928-4.48 c2.844-1.343,7.785-5.819,8.683-10.145c3.291-11.934-2.245-27.004-8.237-31.929C68.795,32.47,68.647,38.14,68.35,40.976z M72.988,84.992v-0.45c-3.445,0-10.477-1.343-17.516-3.131c-4.044-0.894-7.187-2.539-10.78-3.132 c-5.689-0.899-17.966-2.39-19.612-2.687c-2.697,2.534-2.998,4.924-2.25,8.055c0,0,8.985,0.598,13.625,1.941 c4.644,1.344,7.637,3.73,13.178,4.328c6.285,0.746,11.077,1.64,13.323,1.787c2.097,0.301,4.491,1.794,7.187,2.09 C68.795,89.467,69.692,86.483,72.988,84.992z M75.684,85.589c-2.096,0-4.044,2.386-4.044,5.073c0,1.64,0.451,3.878,2.845,3.878 c2.393,0,3.895-2.238,3.895-4.327C78.38,87.975,77.479,85.589,75.684,85.589z M23.733,89.768c-2.548,0-3.748,1.936-3.748,4.624 c0,2.687,1.2,4.474,3.748,4.474c2.691,0,3.742-1.788,3.742-4.474C27.474,91.704,26.424,89.768,23.733,89.768z M25.526,88.272 c3.896,2.243,4.045,5.374,3.143,9.405l14.076-7.464c-4.044-1.64-8.232-3.878-12.277-3.878L25.526,88.272z"/>
</svg>