<?xml version="1.0" ?>
<!-- Find more at icons.mysitemyway.com -->
<svg height="100" width="100" viewBox="0 0 100 100" xmlns:xlink="http://www.w3.org/1999/xlink" xmlns="http://www.w3.org/2000/svg" version="1.1">
<defs>
<linearGradient id="red-gradient" x1="0%" y1="0%" x2="0%" y2="100%">
<stop offset="0%" stop-color="#F95400" />
<stop offset="100%" stop-color="#b50700" />
</linearGradient>
</defs>
<path d="M68.617,55.586c0-1.49,6.399-21.301-6.055-27.292c-14.349-6.903-18.317-12.409-18.197-21.23 c-0.012,0.357-8.677,14.327-3.037,21.23c8.766,10.684,5.066,18.956,0,18.193c-8.505-1.273-7.477-12.365-6.061-15.163 c-4.447-0.469-9.59,2.297-12.136,6.064c-7.65,11.367,8.932,22.241,3.037,30.325c-4.485,6.157-12.155-5.966-12.129-6.064 c-9.104,47.526,57.014,48.735,60.65,9.098c1.085-11.883,11.785-18.35,12.129-18.197C75.424,47.298,68.617,55.966,68.617,55.586z M47.396,88.945C31.503,89.538,33.13,77.616,35.268,73.782c2.705-4.88,9.558-5.847,6.061-12.132 c0.044,0.093,7.439,1.209,12.128,6.064C60.648,75.141,59.831,88.479,47.396,88.945z M56.494,16.163 c-1.857-1.991-3.037-4.383-3.037-6.068c0-3.155,2.578-6.189,6.068-9.095c0.351,2.527-1.513,6.317,0,9.095 c1.173,2.057,3.037,4.383,3.037,6.068c0,2.255-0.842,4.313-3.037,6.064C59.193,21.385,58.613,18.616,56.494,16.163z" fill="url(#red-gradient)" />
</svg>