<?xml version="1.0" ?>
<!-- Find more at icons.mysitemyway.com -->
<svg height="100" width="100" viewBox="0 0 100 100" xmlns:xlink="http://www.w3.org/1999/xlink" xmlns="http://www.w3.org/2000/svg" version="1.1">
<defs>
<linearGradient id="red-gradient" x1="0%" y1="0%" x2="0%" y2="100%">
<stop offset="0%" stop-color="#F95400" />
<stop offset="100%" stop-color="#b50700" />
</linearGradient>
</defs>
<path d="M84.648,15.352C75.394,6.097,63.089,1,50,1C36.912,1,24.607,6.097,15.352,15.352S1,36.912,1,50.001 c0,13.088,5.097,25.393,14.352,34.648C24.607,93.903,36.912,99,50,99s25.393-5.097,34.648-14.352S99,63.088,99,50 S93.903,24.607,84.648,15.352z M88.075,50.001c0,8.33-2.691,16.042-7.246,22.317L27.683,19.171 C33.958,14.616,41.67,11.925,50,11.925C70.995,11.925,88.075,29.005,88.075,50.001z M11.925,50.001c0-8.562,2.842-16.473,7.63-22.84 L72.84,80.446c-6.367,4.788-14.278,7.629-22.84,7.629C29.005,88.075,11.925,70.995,11.925,50.001z M69.281,60.12h3.328v-8.773 H60.507L69.281,60.12z M78.846,51.207h2.94v8.879h-2.94V51.207z M74.251,51.207h2.94v8.879h-2.94V51.207z M43.165,51.347h-25.41 v8.773h34.184L43.165,51.347z M65.308,27.35c0,1.547-0.636,3.348-1.7,4.817c-0.324,0.448-0.37,1.039-0.12,1.531 s0.757,0.802,1.309,0.802h4.668c4.539,0,9.364,3.453,9.364,9.851v5.406h2.94V44.35c0-6.288-4.602-12.791-12.304-12.791h-2.146 c0.602-1.384,0.928-2.837,0.928-4.209c0-5.502-4.417-9.651-10.274-9.651v2.94C62.223,20.64,65.308,23.463,65.308,27.35z M49.385,30.071c1.078,1.016,2.834,2.159,5.452,2.468c-0.404,1.879-0.124,3.947,0.837,5.63c1.209,2.116,3.306,3.329,5.752,3.329 h7.895c4.075,0,4.93,2.302,4.93,4.233v4.026h2.94l0,0V45.73c0-4.425-3.016-7.173-7.87-7.173h-7.896 c-1.771,0-2.717-1.005-3.199-1.848c-0.833-1.457-0.844-3.446-0.025-4.835c0.275-0.467,0.27-1.05-0.013-1.512 c-0.283-0.464-0.798-0.733-1.341-0.701c-2.227,0.129-4.107-0.467-5.446-1.73c-1.156-1.091-1.82-2.607-1.82-4.159 c0-2.074,1.225-5.995,5.862-5.995v-2.94c-3.542,0-5.632,1.663-6.761,3.058c-1.298,1.601-2.041,3.744-2.041,5.876 C46.643,26.131,47.642,28.426,49.385,30.071z" fill="url(#red-gradient)" />
</svg>