<?xml version="1.0" ?>
<!-- Find more at icons.mysitemyway.com -->
<svg height="100" width="100" viewBox="0 0 100 100" xmlns:xlink="http://www.w3.org/1999/xlink" xmlns="http://www.w3.org/2000/svg" version="1.1">
<path d="M91.071,46.428v7.143c0,1.972-0.604,3.655-1.813,5.05c-1.209,1.396-2.781,2.093-4.715,2.093H45.257L61.607,77.12 c1.413,1.34,2.12,3.014,2.12,5.022s-0.707,3.683-2.12,5.022l-4.186,4.241c-1.377,1.376-3.051,2.064-5.022,2.064 c-1.935,0-3.627-0.688-5.078-2.064L10.994,55.023C9.617,53.647,8.929,51.972,8.929,50c0-1.934,0.688-3.627,2.065-5.078L47.322,8.65 c1.414-1.414,3.106-2.121,5.078-2.121c1.935,0,3.608,0.707,5.022,2.121l4.186,4.129c1.413,1.414,2.12,3.106,2.12,5.078 c0,1.972-0.707,3.665-2.12,5.078L45.257,39.286h39.286c1.934,0,3.506,0.697,4.715,2.092S91.071,44.457,91.071,46.428z" fill="#1d936b" />
</svg>